<svg xmlns="http://www.w3.org/2000/svg" viewBox="0 0 4167 4167"><defs><style>.cls-1{fill:#f90094;}.cls-2{fill:#c70076;}.cls-3{fill:#950059;}.cls-4{fill:#64003b;}.cls-5{fill:#32001e;}.cls-6{fill:#012e26;}.cls-7{fill:#025d4b;}.cls-8{fill:#038b71;}.cls-9{fill:#04ba96;}.cls-10{fill:#05e8bc;}</style></defs><title>Sq-bg</title><g id="Layer_2" data-name="Layer 2"><g id="Layer_1-2" data-name="Layer 1"><g id="Top"><rect class="cls-1" x="449" y="1694" width="491" height="1473.27" transform="translate(-1515 1203) rotate(-45)"/><rect class="cls-2" x="796" y="1347" width="491" height="1473.27" transform="translate(-1168 1347) rotate(-45)"/><rect class="cls-3" x="1143" y="1000" width="491" height="1473.27" transform="translate(-821 1491) rotate(-45)"/><rect class="cls-4" x="1491" y="652" width="491" height="1473.27" transform="translate(-474 1635) rotate(-45)"/><rect class="cls-5" x="1838" y="305" width="491" height="1473.27" transform="translate(-126 1778) rotate(-45)"/><rect x="2185" y="-42" width="491" height="1473.27" transform="translate(221 1922) rotate(-45)"/></g><g id="Bottom"><rect x="1491" y="2736" width="491" height="1473.27" transform="translate(-1947 2245) rotate(-45)"/><rect class="cls-6" x="1838" y="2389" width="491" height="1473.27" transform="translate(-1600 2389) rotate(-45)"/><rect class="cls-7" x="2185" y="2041" width="491" height="1473.27" transform="translate(-1252 2532) rotate(-45)"/><rect class="cls-8" x="2532" y="1694" width="491" height="1473.27" transform="translate(-905 2676) rotate(-45)"/><rect class="cls-9" x="2880" y="1347" width="491" height="1473.27" transform="translate(-558 2820) rotate(-45)"/><rect class="cls-10" x="3227" y="1000" width="491" height="1473.27" transform="translate(-211 2964) rotate(-45)"/></g></g></g></svg>