<svg width="1440" height="1024" viewBox="0 0 1440 1024" version="1.1" xmlns="http://www.w3.org/2000/svg" xmlns:xlink="http://www.w3.org/1999/xlink">
<g id="Canvas" fill="none">
<g id="Square bg">
<g id="top">
<g id="bottom">
<g id="Bar">
<path d="M 316.09 2.29948e-05L 4.59896e-05 2.29948e-05L 4.59896e-05 951.85L 316.09 951.85L 316.09 2.29948e-05Z" transform="matrix(0.706976 -0.707225 0.706976 0.707225 1186.6 123.995)" fill="#05E8BC"/>
</g>
<g id="Bar_2">
<path d="M 316.844 -1.14974e-05L 4.59896e-05 -1.14974e-05L 4.59896e-05 951.85L 316.844 951.85L 316.844 -1.14974e-05Z" transform="matrix(0.706976 -0.707225 0.706976 0.707225 963.542 348.907)" fill="#04BA96"/>
</g>
<g id="Bar_3">
<path d="M 317.409 2.29948e-05L 0 2.29948e-05L 0 951.85L 317.409 951.85L 317.409 2.29948e-05Z" transform="matrix(0.706976 -0.707225 0.706976 0.707225 738.752 573.82)" fill="#038B71"/>
</g>
<g id="Bar_4">
<path d="M 318.162 0L 0 0L 0 951.85L 318.162 951.85L 318.162 0Z" transform="matrix(0.706976 -0.707225 0.706976 0.707225 513.83 798.866)" fill="#025D4B"/>
</g>
<g id="Bar_5">
<path d="M 318.727 -2.29948e-05L -4.59896e-05 -2.29948e-05L -4.59896e-05 951.85L 318.727 951.85L 318.727 -2.29948e-05Z" transform="matrix(0.706976 -0.707225 0.706976 0.707225 289.04 1023.78)" fill="#012E26"/>
</g>
<g id="Bar_6">
<path d="M 316.655 -4.59895e-05L -1.14974e-05 -4.59895e-05L -1.14974e-05 951.85L 316.655 951.85L 316.655 -4.59895e-05Z" transform="matrix(0.706976 -0.707225 0.706976 0.707225 66.1517 1246.83)" fill="black"/>
</g>
</g>
<g id="Bar_7">
<path d="M 316.09 -2.29948e-05L 1.14974e-05 -2.29948e-05L 1.14974e-05 951.85L 316.09 951.85L 316.09 -2.29948e-05Z" transform="matrix(0.706976 -0.707225 0.706976 0.707225 -605 571.653)" fill="#F90094"/>
</g>
<g id="Bar_8">
<path d="M 316.844 1.14974e-05L 1.14974e-05 1.14974e-05L 1.14974e-05 951.85L 316.844 951.85L 316.844 1.14974e-05Z" transform="matrix(0.706976 -0.707225 0.706976 0.707225 -384.483 351.131)" fill="#C70076"/>
</g>
<g id="Bar_9">
<path d="M 317.409 -2.29948e-05L -2.29948e-05 -2.29948e-05L -2.29948e-05 951.85L 317.409 951.85L 317.409 -2.29948e-05Z" transform="matrix(0.706976 -0.707225 0.706976 0.707225 -159.961 126.484)" fill="#950059"/>
</g>
<g id="Bar_10">
<path d="M 318.162 0L -1.14974e-05 0L -1.14974e-05 951.85L 318.162 951.85L 318.162 0Z" transform="matrix(0.706976 -0.707225 0.706976 0.707225 64.4294 -98.0291)" fill="#64003B"/>
</g>
<g id="Bar_11">
<path d="M 318.727 -5.74869e-06L 0 -5.74869e-06L 0 951.85L 318.727 951.85L 318.727 -5.74869e-06Z" transform="matrix(0.706976 -0.707225 0.706976 0.707225 288.819 -322.542)" fill="#32001E"/>
</g>
<g id="Bar_12">
<path d="M 319.481 0L -4.59896e-05 0L -4.59896e-05 951.85L 319.481 951.85L 319.481 0Z" transform="matrix(0.706976 -0.707225 0.706976 0.707225 513.209 -547.055)" fill="black"/>
</g>
</g>
</g>
</g>
</svg>

