<svg xmlns="http://www.w3.org/2000/svg" viewBox="0 0 4200 4200"><defs><style>.cls-1{fill:#f90094;}.cls-2{fill:#c70076;}.cls-3{fill:#950059;}.cls-4{fill:#64003b;}.cls-5{fill:#32001e;}.cls-6{fill:#012e26;}.cls-7{fill:#025d4b;}.cls-8{fill:#038b71;}.cls-9{fill:#04ba96;}.cls-10{fill:#05e8bc;}</style></defs><title>sq</title><g id="Layer_2" data-name="Layer 2"><g id="Layer_1-2" data-name="Layer 1"><g id="Top"><rect class="cls-1" x="453" y="1708" width="495" height="1484.92" transform="translate(-1527 1213) rotate(-45)"/><rect class="cls-2" x="803" y="1358" width="495" height="1484.92" transform="translate(-1177 1358) rotate(-45)"/><rect class="cls-3" x="1153" y="1008" width="495" height="1484.92" transform="translate(-827 1503) rotate(-45)"/><rect class="cls-4" x="1503" y="658" width="495" height="1484.92" transform="translate(-477 1647) rotate(-45)"/><rect class="cls-5" x="1853" y="308" width="495" height="1484.92" transform="translate(-127 1792) rotate(-45)"/><rect x="2203" y="-42" width="495" height="1484.92" transform="translate(223 1937) rotate(-45)"/></g><g id="Bottom"><rect x="1503" y="2758" width="495" height="1484.92" transform="translate(-1962 2263) rotate(-45)"/><rect class="cls-6" x="1853" y="2408" width="495" height="1484.92" transform="translate(-1612 2408) rotate(-45)"/><rect class="cls-7" x="2203" y="2058" width="495" height="1484.92" transform="translate(-1262 2553) rotate(-45)"/><rect class="cls-8" x="2553" y="1708" width="495" height="1484.92" transform="translate(-912 2697) rotate(-45)"/><rect class="cls-9" x="2903" y="1358" width="495" height="1484.92" transform="translate(-562 2842) rotate(-45)"/><rect class="cls-10" x="3253" y="1008" width="495" height="1484.92" transform="translate(-212 2987) rotate(-45)"/></g></g></g></svg>