<svg xmlns="http://www.w3.org/2000/svg" viewBox="0 0 4200 4200"><defs><style>.cls-1{fill:#f90094;}.cls-2{fill:#c70076;}.cls-3{fill:#950059;}.cls-4{fill:#64003b;}.cls-5{fill:#32001e;}.cls-6{fill:#012e26;}.cls-7{fill:#025d4b;}.cls-8{fill:#038b71;}.cls-9{fill:#04ba96;}.cls-10{fill:#05e8bc;}</style></defs><title>SqFull</title><g id="Layer_2" data-name="Layer 2"><g id="Layer_1-2" data-name="Layer 1"><g id="sqFull"><g id="Top"><polygon class="cls-1" points="1400 2800 0 4200 0 2100 0 1400 1400 2800"/><polygon class="cls-2" points="1750 2450 1400 2800 0 1400 0 700 1750 2450"/><polygon class="cls-3" points="2100 2100 1750 2450 0 700 0 0 2100 2100"/><polygon class="cls-4" points="2450 1750 2100 2100 0 0 700 0 2450 1750"/><polygon class="cls-5" points="2800 1400 2450 1750 700 0 1400 0 2800 1400"/><polygon points="4200 0 2800 1400 1400 0 2100 0 4200 0"/></g><g id="Bottom"><polygon points="2800 4200 2100 4200 0 4200 1400 2800 2800 4200"/><polygon class="cls-6" points="3500 4200 2800 4200 1400 2800 1750 2450 3500 4200"/><polygon class="cls-7" points="4200 4200 3500 4200 1750 2450 2100 2100 4200 4200"/><polygon class="cls-8" points="4200 3500 4200 4200 2100 2100 2450 1750 4200 3500"/><polygon class="cls-9" points="4200 2800 4200 3500 2450 1750 2800 1400 4200 2800"/><polygon class="cls-10" points="4200 2100 4200 2800 2800 1400 4200 0 4200 2100"/></g></g></g></g></svg>