<svg xmlns="http://www.w3.org/2000/svg" viewBox="0 0 3028 3028"><defs><style>.cls-1{fill:#f90094;}.cls-2{fill:#c70076;}.cls-3{fill:#950059;}.cls-4{fill:#64003b;}.cls-5{fill:#32001e;}.cls-6{fill:#012e26;}.cls-7{fill:#025d4b;}.cls-8{fill:#038b71;}.cls-9{fill:#04ba96;}.cls-10{fill:#05e8bc;}</style></defs><title>swatchsquares</title><g id="Layer_2" data-name="Layer 2"><g id="Layer_1-2" data-name="Layer 1"><g id="Top"><rect class="cls-1" x="237" y="881" width="375" height="1124.21" transform="matrix(0.89, -0.46, 0.46, 0.89, -613.68, 354.17)"/><rect class="cls-2" x="570" y="710" width="375" height="1124.21" transform="translate(-498 488) rotate(-27)"/><rect class="cls-3" x="903" y="538" width="375" height="1124.21" transform="translate(-383 621) rotate(-27)"/><rect class="cls-4" x="1236" y="367" width="375" height="1124.21" transform="matrix(0.89, -0.46, 0.46, 0.89, -267.2, 754.64)"/><rect class="cls-5" x="1569" y="195" width="375" height="1124.21" transform="translate(-152 888) rotate(-27)"/><rect x="1902" y="23" width="375" height="1124.21" transform="translate(-36 1022) rotate(-27)"/></g><g id="Bottom"><rect x="751" y="1881" width="375" height="1124.21" transform="translate(-1014 701) rotate(-27)"/><rect class="cls-6" x="1084" y="1709" width="375" height="1124.21" transform="translate(-899 834) rotate(-27)"/><rect class="cls-7" x="1418" y="1538" width="375" height="1124.21" transform="translate(-783 968) rotate(-27)"/><rect class="cls-8" x="1751" y="1366" width="375" height="1124.21" transform="translate(-668 1101) rotate(-27)"/><rect class="cls-9" x="2084" y="1194" width="375" height="1124.21" transform="translate(-552 1235) rotate(-27)"/><rect class="cls-10" x="2417" y="1023" width="375" height="1124.21" transform="translate(-437 1368) rotate(-27)"/></g></g></g></svg>